<?xml version="1.0" encoding="utf-8"?>
<!-- Generator: Adobe Illustrator 16.0.4, SVG Export Plug-In . SVG Version: 6.00 Build 0)  -->
<!DOCTYPE svg PUBLIC "-//W3C//DTD SVG 1.1//EN" "http://www.w3.org/Graphics/SVG/1.1/DTD/svg11.dtd">
<svg version="1.1" id="Layer_1" xmlns="http://www.w3.org/2000/svg" xmlns:xlink="http://www.w3.org/1999/xlink" x="0px" y="0px"
	 width="200px" height="200px" viewBox="0 0 200 200" enable-background="new 0 0 200 200" xml:space="preserve">
<symbol  id="logo_flat_copy" viewBox="-510 -510 1020 1020">
	<path fill-rule="evenodd" clip-rule="evenodd" d="M-353.4-315.15c-9.551,29.715-15.117,63.541-16.699,101.475
		c-32.051,20.306-58.543,42.006-79.476,65.1c-0.289-34.648,8.119-66.791,25.226-96.425C-407.2-274.658-383.551-298.041-353.4-315.15
		z M-362.825-97.225c-19.86,24.271-37.452,49.612-52.774,76.025c-16.949-34.763-27.566-67.697-31.851-98.8
		c19.229-24.736,44.854-47.894,76.875-69.475C-370.479-158.905-367.896-128.155-362.825-97.225z M-274.4-240.6
		c-7.55,22.914-13.892,46.639-19.024,71.175c-18.698,16.765-36.09,34.148-52.175,52.15c-3.711-27.716-5.345-55.274-4.9-82.675
		v-0.025c0.011-0.784,0.027-1.567,0.05-2.35c0.678-0.407,1.36-0.815,2.05-1.225l0.051-0.025
		C-324.882-217.632-300.232-229.974-274.4-240.6z M-97.275-362.825c-30.934-5.042-61.667-7.608-92.2-7.7
		c21.611-32.053,44.819-57.711,69.625-76.975c31.039,4.314,63.905,14.931,98.6,31.85C-47.658-400.304-73-382.696-97.275-362.825z
		 M-136.4-299.55c14.489-14.954,29.439-28.954,44.851-42c19.88,3.575,39.855,8.216,59.925,13.925
		c-16.776,6.376-33.601,13.451-50.475,21.225C-100.612-304.694-118.712-302.411-136.4-299.55z M-158.875-275.175
		c7.721-1.534,15.521-2.95,23.4-4.25c-6.496,3.553-13.005,7.211-19.525,10.975c-6.519,3.76-12.944,7.569-19.275,11.425
		C-169.202-263.206-164.069-269.256-158.875-275.175z M-213.65-370.1c-37.918,1.581-71.726,7.131-101.425,16.65
		c17.104-30.139,40.462-53.772,70.075-70.9c29.688-17.133,61.871-25.558,96.55-25.275C-171.587-428.672-193.32-402.164-213.65-370.1
		z M-226.175-349.375c-15.212,26.517-28.337,54.45-39.375,83.8c-29.362,11.081-57.305,24.223-83.825,39.425
		c2.708-38.582,9.983-72.415,21.825-101.5C-298.495-339.434-264.704-346.675-226.175-349.375z M-169.4-293.425
		c-24.574,5.158-48.315,11.508-71.225,19.05c10.612-25.841,22.962-50.499,37.05-73.975v0.025c0.417-0.697,0.834-1.396,1.25-2.1
		c0.782-0.007,1.566-0.015,2.351-0.025h0.024c27.368-0.444,54.901,1.181,82.601,4.875
		C-135.324-329.498-152.675-312.115-169.4-293.425z M-191.25-267.875c-11.313,13.887-22.313,28.42-33,43.6
		c-15.198,10.729-29.748,21.754-43.65,33.075c5.078-20.192,11.045-39.792,17.9-58.8C-231.023-256.833-211.44-262.792-191.25-267.875
		z M-299.525-136.375c-2.86,17.689-5.127,35.772-6.8,54.25c-7.81,16.905-14.909,33.747-21.3,50.525
		c-5.707-20.038-10.349-40.004-13.925-59.9C-328.499-106.909-314.49-121.867-299.525-136.375z M-275.15-158.9
		c5.903-5.179,11.937-10.295,18.101-15.35c-3.844,6.32-7.644,12.737-11.4,19.25c-3.762,6.52-7.42,13.028-10.975,19.525
		C-278.123-143.359-276.697-151.168-275.15-158.9z M-309.725,22.375c-2.827-7.46-5.51-14.91-8.051-22.35
		c2.538-7.452,5.213-14.919,8.025-22.4C-309.916-14.972-309.999-7.514-310,0C-309.999,7.521-309.907,14.979-309.725,22.375z
		 M-257.05,174.2c-6.176-5.06-12.218-10.185-18.125-15.375c-1.531-7.703-2.947-15.486-4.25-23.351
		c3.556,6.5,7.215,13.008,10.975,19.525C-264.698,161.496-260.897,167.896-257.05,174.2z M-224.325,224.2
		c10.715,15.209,21.74,29.768,33.075,43.675c-20.218-5.083-39.817-11.041-58.8-17.875c-6.834-19.009-12.784-38.617-17.851-58.825
		C-254.023,202.491-239.498,213.499-224.325,224.2z M-199.925,350.5c-0.811-0.011-1.619-0.027-2.425-0.05
		c-0.408-0.669-0.816-1.344-1.226-2.025v0.025c-14.093-23.51-26.459-48.201-37.1-74.075c22.921,7.546,46.68,13.904,71.274,19.075
		c16.721,18.702,34.062,36.085,52.025,52.149c-27.667,3.711-55.175,5.344-82.525,4.9H-199.925z M-135.45,279.425
		c-7.887-1.298-15.688-2.715-23.399-4.25c-5.203-5.912-10.336-11.954-15.4-18.125c6.321,3.844,12.737,7.644,19.25,11.4
		C-148.477,272.214-141.96,275.872-135.45,279.425z M-91.525,341.55c-15.429-13.036-30.396-27.044-44.9-42.024
		c17.695,2.863,35.803,5.138,54.325,6.824c16.887,7.794,33.72,14.886,50.5,21.275C-51.66,333.331-71.635,337.973-91.525,341.55z
		 M-0.05,317.75c-7.422-2.529-14.855-5.195-22.3-8c7.37,0.166,14.803,0.249,22.3,0.25c7.536-0.001,15.01-0.093,22.425-0.275
		C14.888,312.552,7.413,315.227-0.05,317.75z M-362.775,97.2c-5.096,30.943-7.679,61.677-7.75,92.2
		c-32.06-21.603-57.718-44.786-76.975-69.551c4.315-31.062,14.94-63.937,31.875-98.625C-400.288,47.632-382.672,72.957-362.775,97.2
		z M-341.5,91.475c3.578-19.85,8.211-39.792,13.9-59.825c6.384,16.767,13.476,33.592,21.274,50.475
		c1.673,18.477,3.931,36.551,6.775,54.225C-314.492,121.851-328.476,106.893-341.5,91.475z M-403.475,2.125
		c-0.389-0.7-0.772-1.4-1.15-2.1c0.378-0.699,0.761-1.399,1.15-2.1l0.024-0.025c13.274-23.906,28.44-46.923,45.5-69.05
		c4.917,23.61,11.292,47.318,19.125,71.125c-7.815,23.865-14.183,47.606-19.1,71.225c-17.072-22.109-32.247-45.126-45.525-69.05
		L-403.475,2.125z M-427.3,0.025c-17.6,33.602-29.708,65.644-36.325,96.125C-481.181,66.253-489.973,34.187-490-0.05
		c0.028-34.263,8.836-66.347,26.425-96.25C-456.997-65.764-444.905-33.656-427.3,0.025z M-327.6,327.55
		c-11.811-29.051-19.053-62.851-21.726-101.399c26.47,15.206,54.37,28.348,83.7,39.425c11.068,29.341,24.201,57.267,39.4,83.774
		C-264.76,346.629-298.552,339.362-327.6,327.55z M-370.05,213.625c1.559,37.934,7.1,71.75,16.625,101.45
		c-30.154-17.104-53.796-40.462-70.925-70.075c-17.136-29.692-25.562-61.884-25.275-96.575
		C-428.661,171.553-402.136,193.286-370.05,213.625z M-348.325,203.525c-0.696-0.418-1.388-0.835-2.075-1.25
		c-0.022-0.769-0.039-1.535-0.05-2.301v-0.05c-0.47-27.365,1.155-54.907,4.875-82.625c16.073,17.977,33.457,35.326,52.15,52.05
		c5.132,24.582,11.466,48.341,19,71.275c-25.831-10.644-50.473-23.01-73.925-37.1H-348.325z M-148.525,449.575
		c-34.679,0.291-66.837-8.117-96.475-25.226c-29.669-17.157-53.052-40.815-70.15-70.975c29.704,9.541,63.521,15.116,101.45,16.725
		C-193.354,402.149-171.629,428.642-148.525,449.575z M-21.275,415.675c-34.715,16.901-67.606,27.501-98.675,31.8
		c-24.736-19.238-47.919-44.872-69.55-76.899c30.569-0.092,61.319-2.675,92.25-7.75C-73.008,382.695-47.683,400.312-21.275,415.675z
		 M0-490c34.248,0.026,66.315,8.801,96.2,26.325c-30.527,6.608-62.611,18.708-96.25,36.3c-33.617-17.565-65.658-29.648-96.125-36.25
		C-66.292-481.181-34.234-489.972,0-490z M2.075-403.475L2.1-403.45c23.907,13.274,46.924,28.441,69.05,45.5
		c-23.62,4.918-47.345,11.293-71.175,19.125c-23.859-7.831-47.592-14.206-71.2-19.125c22.168-17.091,45.227-32.291,69.175-45.6
		h-0.025c0.672-0.37,1.338-0.737,2-1.1C0.645-404.262,1.362-403.87,2.075-403.475z M189.425-370.575
		c-30.552,0.074-61.293,2.658-92.225,7.75c-24.283-19.881-49.641-37.49-76.075-52.825c34.745-16.951,67.67-27.584,98.775-31.9
		C144.649-428.283,167.824-402.625,189.425-370.575z M315.1-353.475c-29.724-9.535-63.558-15.093-101.5-16.675
		c-20.323-32.054-42.032-58.562-65.125-79.525c34.657-0.25,66.832,8.191,96.525,25.325
		C274.602-407.223,297.968-383.598,315.1-353.475z M224.275-224.275c-10.727-15.191-21.751-29.741-33.075-43.65
		c20.213,5.082,39.812,11.04,58.8,17.875c6.833,19.002,12.791,38.603,17.875,58.8C253.989-202.566,239.456-213.575,224.275-224.275z
		 M240.6-274.425c-22.899-7.543-46.624-13.893-71.175-19.05c-16.753-18.692-34.12-36.075-52.1-52.15
		c27.72-3.72,55.287-5.345,82.7-4.875h0.05c0.732,0.01,1.465,0.018,2.2,0.025c0.407,0.693,0.816,1.385,1.225,2.075l0.025,0.05
		C217.604-324.883,229.962-300.241,240.6-274.425z M91.475-341.55c15.418,13.031,30.385,27.031,44.9,42
		c-17.69-2.857-35.782-5.141-54.275-6.85c-16.891-7.775-33.724-14.85-50.5-21.225C51.633-333.332,71.592-337.973,91.475-341.55z
		 M0-317.75c7.441,2.523,14.899,5.189,22.375,8c-7.386-0.166-14.827-0.249-22.325-0.25c-7.542,0.001-15.025,0.084-22.45,0.25
		C-14.926-312.558-7.459-315.225,0-317.75z M135.4-279.45c7.909,1.294,15.734,2.71,23.475,4.25
		c5.186,5.92,10.311,11.97,15.375,18.15c-6.319-3.843-12.736-7.643-19.25-11.4C148.461-272.224,141.928-275.891,135.4-279.45z
		 M257.025-174.275c6.183,5.067,12.233,10.201,18.15,15.4c1.534,7.723,2.95,15.531,4.25,23.425
		c-3.552-6.511-7.21-13.028-10.975-19.55C264.688-161.522,260.879-167.948,257.025-174.275z M370.175-213.6
		c-1.595-37.967-7.17-71.817-16.725-101.55c30.122,17.115,53.755,40.499,70.9,70.15c17.135,29.666,25.561,61.841,25.275,96.525
		C428.696-171.569,402.213-193.277,370.175-213.6z M327.6-327.65c11.844,29.094,19.119,62.944,21.825,101.55
		c-26.532-15.244-54.482-28.419-83.85-39.525c-11.088-29.341-24.247-57.275-39.475-83.8
		C264.674-346.725,298.507-339.466,327.6-327.65z M348.425-203.475c0.698,0.418,1.389,0.835,2.075,1.25
		c0.023,0.717,0.04,1.434,0.05,2.15v0.025c0.444,27.406-1.189,54.99-4.9,82.75c-16.096-18.003-33.504-35.37-52.225-52.1
		c-5.157-24.572-11.507-48.322-19.05-71.25c25.876,10.669,50.568,23.061,74.075,37.175H348.425z M370.625-189.4
		c32.024,21.598,57.649,44.764,76.875,69.5c-4.282,31.073-14.882,63.981-31.8,98.725c-15.355-26.428-32.963-51.778-52.825-76.05
		C367.938-128.159,370.521-158.884,370.625-189.4z M341.6-91.525c-3.595,19.869-8.253,39.827-13.975,59.875
		c-6.358-16.759-13.433-33.576-21.225-50.45c-1.709-18.523-3.992-36.632-6.85-54.325C314.526-121.923,328.542-106.957,341.6-91.525z
		 M415.725,21.275c16.927,34.706,27.544,67.581,31.85,98.625c-19.269,24.794-44.936,48.01-77,69.649
		c-0.068-30.572-2.652-61.339-7.75-92.3C382.731,73.001,400.365,47.676,415.725,21.275z M463.675,96.175
		c-6.586-30.465-18.669-62.506-36.25-96.125c17.556-33.656,29.623-65.73,36.2-96.225C481.182-66.277,489.973-34.202,490,0.05
		C489.974,34.267,481.199,66.308,463.675,96.175z M404.725,0.05c-0.374,0.696-0.749,1.387-1.125,2.075V2.1
		c-13.308,23.958-28.517,47.008-45.625,69.15c-4.929-23.604-11.312-47.346-19.15-71.225c7.832-23.853,14.223-47.586,19.175-71.2
		c17.061,22.14,32.244,45.182,45.55,69.125l0.025,0.025C403.961-1.328,404.345-0.636,404.725,0.05z M353.475,315.075
		c9.527-29.67,15.069-63.445,16.625-101.325c32.079-20.35,58.595-42.092,79.55-65.225c0.262,34.658-8.172,66.817-25.3,96.475
		C407.228,274.604,383.603,297.962,353.475,315.075z M274.35,240.7c7.559-22.931,13.917-46.697,19.075-71.3
		c18.705-16.739,36.104-34.106,52.2-52.101c3.72,27.744,5.345,55.319,4.875,82.726v0.05c-0.01,0.776-0.027,1.552-0.05,2.325
		c-0.669,0.407-1.344,0.815-2.025,1.225h0.025C324.939,217.718,300.239,230.076,274.35,240.7z M299.55,136.4
		c2.86-17.689,5.143-35.789,6.85-54.3c7.775-16.87,14.851-33.695,21.225-50.475c5.708,20.072,10.35,40.047,13.925,59.925
		C328.501,106.961,314.501,121.911,299.55,136.4z M317.75,0.025c-2.526,7.446-5.193,14.905-8,22.375
		c0.166-7.408,0.249-14.875,0.25-22.4c-0.001-7.527-0.084-14.994-0.25-22.4C312.561-14.915,315.227-7.44,317.75,0.025z
		 M275.15,158.875c-5.904,5.192-11.937,10.317-18.1,15.375c3.842-6.317,7.642-12.734,11.4-19.25
		c3.763-6.521,7.422-13.029,10.975-19.525C278.125,143.354,276.7,151.154,275.15,158.875z M145,251.15
		c-22.85,13.178-45.591,25.045-68.225,35.6c-24.849,2.17-50.458,3.253-76.825,3.25c-26.337,0.003-51.921-1.08-76.75-3.25
		c-22.622-10.558-45.355-22.424-68.2-35.6c-22.85-13.183-44.499-26.949-64.95-41.301c-14.298-20.438-28.031-42.056-41.2-64.85
		c-13.181-22.854-25.047-45.595-35.6-68.225C-288.92,51.919-290.003,26.327-290,0c-0.003-26.334,1.08-51.934,3.25-76.8
		c10.556-22.619,22.423-45.353,35.6-68.2c13.171-22.829,26.904-44.462,41.2-64.9c20.456-14.321,42.106-28.071,64.95-41.25
		c22.861-13.181,45.611-25.072,68.25-35.675c24.844-2.12,50.444-3.179,76.8-3.175c26.293-0.003,51.86,1.063,76.7,3.2
		c22.643,10.588,45.393,22.472,68.25,35.65c22.837,13.175,44.479,26.917,64.925,41.225c14.308,20.446,28.05,42.087,41.225,64.925
		c13.178,22.857,25.062,45.607,35.65,68.25c2.137,24.841,3.204,50.424,3.2,76.75c0.003,26.315-1.063,51.89-3.2,76.725
		c-10.583,22.651-22.467,45.41-35.65,68.275c-13.17,22.829-26.904,44.462-41.2,64.9C189.463,224.221,167.813,237.971,145,251.15z
		 M158.9,275.15c-7.728,1.547-15.536,2.972-23.425,4.274c6.496-3.554,13.004-7.213,19.525-10.975
		c6.521-3.768,12.946-7.575,19.275-11.425C169.215,263.198,164.09,269.239,158.9,275.15z M136.425,299.525
		c-14.536,14.98-29.519,28.988-44.95,42.024c-19.869-3.574-39.811-8.216-59.825-13.925c16.773-6.374,33.606-13.474,50.5-21.3
		C100.637,304.649,118.728,302.383,136.425,299.525z M226.15,349.4c15.208-26.491,28.349-54.416,39.425-83.775
		c29.352-11.042,57.286-24.159,83.8-39.35c-2.673,38.497-9.914,72.256-21.725,101.274C298.566,339.394,264.733,346.677,226.15,349.4
		z M191.175,267.9c11.336-13.897,22.378-28.447,33.125-43.65c15.171-10.69,29.696-21.69,43.575-33
		c-5.083,20.221-11.041,39.829-17.875,58.825C230.993,256.894,211.384,262.835,191.175,267.9z M203.525,348.45v-0.025
		c-0.418,0.697-0.835,1.389-1.25,2.075c-0.735,0.023-1.468,0.04-2.2,0.05h-0.025c-27.424,0.444-55.008-1.197-82.75-4.925
		c17.986-16.082,35.353-33.482,52.1-52.2c24.555-5.135,48.296-11.477,71.225-19.024C229.984,300.283,217.618,324.966,203.525,348.45
		z M245,424.35c-29.639,17.107-61.797,25.532-96.475,25.275c23.096-20.958,44.812-47.45,65.15-79.475
		c37.937-1.61,71.77-7.193,101.5-16.75C298.052,383.549,274.66,407.199,245,424.35z M0,510c45.317,0.032,87.167-13.868,125.55-41.7
		c47.138,4.844,90.288-4.039,129.45-26.649c39.267-22.622,68.567-55.572,87.9-98.851c43.246-19.334,76.162-48.601,98.75-87.8
		c22.645-39.198,31.545-82.356,26.7-129.475C496.148,87.16,510.032,45.335,510,0.05c0.032-45.307-13.859-87.149-41.675-125.525
		c4.863-47.144-4.028-90.318-26.675-129.525c-22.62-39.263-55.554-68.562-98.8-87.9c-19.36-43.248-48.643-76.164-87.85-98.75
		c-39.237-22.648-82.403-31.556-129.5-26.725C87.142-496.156,45.309-510.031,0-510c-45.276-0.033-87.092,13.859-125.45,41.675
		c-47.128-4.862-90.311,4.029-129.55,26.675c-39.199,22.588-68.466,55.504-87.8,98.75c-43.278,19.333-76.229,48.633-98.851,87.9
		c-22.614,39.176-31.489,82.317-26.625,129.425C-496.126-87.198-510.034-45.356-510-0.05c-0.032,45.279,13.867,87.112,41.7,125.5
		c-4.878,47.13,4.005,90.313,26.649,129.55c22.587,39.199,55.521,68.466,98.801,87.8c19.298,43.278,48.581,76.229,87.85,98.851
		c39.169,22.61,82.318,31.477,129.45,26.6C-87.163,496.117-45.312,510.034,0,510z M119.925,447.525
		C88.833,443.225,55.908,432.6,21.15,415.65c26.416-15.334,51.766-32.942,76.05-52.825c30.935,5.096,61.685,7.695,92.25,7.8
		C167.846,402.63,144.671,428.263,119.925,447.525z M96.225,463.625C66.327,481.182,34.252,489.974,0,490
		c-34.263-0.028-66.347-8.836-96.25-26.425c30.497-6.57,62.572-18.637,96.225-36.2C33.625,444.96,65.708,457.043,96.225,463.625z
		 M2.15,403.45l0.025-0.025c-0.754,0.415-1.504,0.831-2.25,1.25c-0.686-0.377-1.369-0.752-2.05-1.125H-2.1
		c-23.948-13.302-46.989-28.493-69.125-45.575C-47.6,353.046-23.858,346.662,0,338.825c23.819,7.832,47.535,14.207,71.15,19.125
		C49.029,375.01,26.029,390.177,2.15,403.45z"/>
</symbol>
<use xlink:href="#logo_flat_copy"  width="1020" height="1020" x="-510" y="-510" transform="matrix(0.1961 0 0 -0.1961 100 100)" overflow="visible"/>
</svg>
